<?xml version="1.0" encoding="UTF-8" standalone="no"?>
<svg
   class="ionicon"
   viewBox="0 0 512 512"
   version="1.1"
   id="svg6"
   sodipodi:docname="key.svg"
   inkscape:version="1.1.1 (3bf5ae0d25, 2021-09-20)"
   xmlns:inkscape="http://www.inkscape.org/namespaces/inkscape"
   xmlns:sodipodi="http://sodipodi.sourceforge.net/DTD/sodipodi-0.dtd"
   xmlns="http://www.w3.org/2000/svg"
   xmlns:svg="http://www.w3.org/2000/svg">
  <defs
     id="defs10" />
  <sodipodi:namedview
     id="namedview8"
     pagecolor="#ffffff"
     bordercolor="#666666"
     borderopacity="1.0"
     inkscape:pageshadow="2"
     inkscape:pageopacity="0.0"
     inkscape:pagecheckerboard="0"
     showgrid="false"
     inkscape:zoom="1.09375"
     inkscape:cx="256"
     inkscape:cy="256.45714"
     inkscape:window-width="1366"
     inkscape:window-height="745"
     inkscape:window-x="-8"
     inkscape:window-y="-8"
     inkscape:window-maximized="1"
     inkscape:current-layer="svg6" />
  <title
     id="title2">Key</title>
  <path
     d="M218.1 167.17c0 13 0 25.6 4.1 37.4-43.1 50.6-156.9 184.3-167.5 194.5a20.17 20.17 0 00-6.7 15c0 8.5 5.2 16.7 9.6 21.3 6.6 6.9 34.8 33 40 28 15.4-15 18.5-19 24.8-25.2 9.5-9.3-1-28.3 2.3-36s6.8-9.2 12.5-10.4 15.8 2.9 23.7 3c8.3.1 12.8-3.4 19-9.2 5-4.6 8.6-8.9 8.7-15.6.2-9-12.8-20.9-3.1-30.4s23.7 6.2 34 5 22.8-15.5 24.1-21.6-11.7-21.8-9.7-30.7c.7-3 6.8-10 11.4-11s25 6.9 29.6 5.9c5.6-1.2 12.1-7.1 17.4-10.4 15.5 6.7 29.6 9.4 47.7 9.4 68.5 0 124-53.4 124-119.2S408.5 48 340 48s-121.9 53.37-121.9 119.17zM400 144a32 32 0 11-32-32 32 32 0 0132 32z"
     fill="none"
     stroke="currentColor"
     stroke-linejoin="round"
     stroke-width="32"
     id="path4"
     style="stroke:#ffffff;stroke-opacity:1" />
</svg>
